<svg width="32" height="32" viewBox="0 0 32 32" fill="none" xmlns="http://www.w3.org/2000/svg">
<path d="M12.082 24.4559H15.9871L19.8921 7.54412H15.9871L12.082 24.4559Z" fill="#ffffff"/>
<path d="M8.3896 7.60895L0 15.9985L0.001562 16.0001L0 16.0017L8.3896 24.3913L10.9341 21.8467L5.08749 16.0001L10.9341 10.1535L8.3896 7.60895Z" fill="#ffffff"/>
<path d="M2.54505 13.4574L0.00195312 16.0005L2.54514 18.5436L5.08824 16.0005L2.54505 13.4574Z" fill="#ffffff"/>
<path d="M31.9986 15.9985L23.609 7.60895L21.0645 10.1535L26.9111 16.0001L21.0645 21.8467L23.609 24.3913L31.9986 16.0017L31.997 16.0001L31.9986 15.9985Z" fill="#ffffff"/>
<path d="M29.4552 13.4568L26.9121 16L29.4553 18.5431L31.9984 15.9999L29.4552 13.4568Z" fill="#ffffff"/>
</svg>